HIERARCHY
ROOT Hips
{
	OFFSET 0.00000 0.00000 0.00000
	CHANNELS 6 Xposition Yposition Zposition Yrotation Zrotation Xrotation 
	JOINT Lumbar
	{
		OFFSET 0 0 0
		CHANNELS 3 Zrotation Xrotation Yrotation
		JOINT Neck
		{
			OFFSET 0.00 0.2701 0.00
			CHANNELS 3 Zrotation Xrotation Yrotation
			End Site
			{
				OFFSET 0.00 0.1379 0.00
			}
		}
		JOINT RightShoulder
		{
			OFFSET 0.0119 0.2289 0.1181
			CHANNELS 3 Zrotation Xrotation Yrotation
			JOINT RightElbow
			{
				OFFSET 0.00 -0.1475 0.00
				CHANNELS 2 Zrotation Yrotation
				JOINT RightWrist
				{
					OFFSET 0.00 -0.1605 0.00
					CHANNELS 2 Zrotation Xrotation
					End Site
					{
						OFFSET 0.0040 -0.1068 0.0006
					}
				}
			}
		}
		JOINT LeftShoulder
		{
			OFFSET 0.0119 0.2289 -0.1181
			CHANNELS 3 Zrotation Xrotation Yrotation
			JOINT LeftElbow
			{
				OFFSET 0.00 -0.1475 0.00
				CHANNELS 2 Zrotation Yrotation
				JOINT LeftWrist
				{
					OFFSET 0.00 -0.1605 0.00
					CHANNELS 2 Zrotation Xrotation
					End Site
					{
						OFFSET 0.0040 -0.1068 -0.0006
					}
				}
			}
		}
	}
	JOINT RightHip
	{
		OFFSET 0.0316 -0.0424 0.0458
		CHANNELS 3 Zrotation Xrotation Yrotation
		JOINT RightKnee
		{
			OFFSET 0.00 -0.2438 0.00
			CHANNELS 1 Zrotation
			JOINT RightAnkle
			{
				OFFSET 0.00 -0.2449 0.00
				CHANNELS 3 Zrotation Xrotation Yrotation
				End Site
				{
					OFFSET 0.1237 -0.0542 0.0051
				}
			}
		}
	}
	JOINT LeftHip
	{
		OFFSET 0.0316 -0.0424 -0.0458
		CHANNELS 3 Zrotation Xrotation Yrotation
		JOINT LeftKnee
		{
			OFFSET 0.00 -0.2438 0.00
			CHANNELS 1 Zrotation
			JOINT LeftAnkle
			{
				OFFSET 0.00 -0.2449 0.00
				CHANNELS 3 Zrotation Xrotation Yrotation
				End Site
				{
					OFFSET 0.1237 -0.0542 -0.0051
				}
			}
		}
	}
}
MOTION
Frames: 22
Frame Time: 0.02
0 0.57926 0 197.4579 0 -13.60038 5.75377 12.51013 -4.91095 -22.73738 3.47659 -1.39604 -10.61518 -29.15408 -4.08921 110.1721 42.01689 -24.00369 3.07361 -6.86095 16.45217 18.58203 105.18029 -70.58283 -33.91985 2.45798 -5.29538 13.92287 47.89927 5.32851 -5.39501 -0 -21.42862 19.50397 17.84943 -31.35366 -36.35666 9.92544 7.8344 17.51733
0.00014 0.57915 -0.00022 197.43686 0 -13.64397 5.91253 12.45755 -4.7041 -22.81079 3.16864 -1.51634 -9.63427 -25.47428 -5.52836 110.94739 48.34973 -27.60523 1.86264 -5.75569 14.91486 17.65567 107.75775 -70.58732 -37.67606 2.53806 -5.26612 13.92287 47.89897 5.3285 -5.37442 -0.00017 -21.42857 19.60539 17.89038 -31.26954 -36.49485 9.96245 7.85786 17.51645
0.00028 0.57904 -0.00044 197.41557 0 -13.68713 6.07072 12.405 -4.49939 -22.88167 2.86245 -1.63655 -8.66056 -21.8189 -6.95436 111.71462 54.63347 -31.19226 0.66092 -4.66119 13.39126 16.72904 110.31239 -70.59298 -41.39993 2.61756 -5.23711 13.92287 47.89868 5.3285 -5.35393 -0.00034 -21.42852 19.70582 17.93115 -31.18573 -36.63185 9.99918 7.88119 17.51556
0.00041 0.57893 -0.00066 197.39348 0 -13.72868 6.22815 12.35183 -4.30039 -22.94555 2.55898 -1.75768 -7.70287 -18.21925 -8.34226 112.45776 60.79629 -34.76391 -0.51642 -3.59611 11.91138 15.78757 112.8031 -70.62462 -45.02286 2.69726 -5.2089 13.92287 47.8984 5.3285 -5.33381 -0.00051 -21.42847 19.80319 17.97131 -31.10243 -36.76513 10.03487 7.90412 17.51445
0.00057 0.57881 -0.00088 197.37614 0 -13.77839 6.38955 12.30167 -4.07017 -23.04938 2.2395 -1.87407 -6.65641 -14.31711 -9.93246 113.32917 67.61604 -38.42604 -1.82387 -2.3718 10.20456 14.91904 115.63502 -70.54406 -49.17063 2.77796 -5.17654 13.92287 47.89806 5.32849 -5.31194 -0.0007 -21.42841 19.91666 18.01438 -31.01652 -36.91773 10.07572 7.92906 17.51428
0.00067 0.57872 -0.00109 197.34843 0 -13.81105 6.54241 12.24534 -3.90686 -23.06667 1.95532 -2.00029 -5.80141 -11.06358 -11.0929 113.92798 73.02846 -41.887 -2.85419 -1.48776 8.97627 13.90098 117.7407 -70.68363 -52.21092 2.85505 -5.15292 13.92287 47.89785 5.32849 -5.29366 -0.00083 -21.42837 19.99602 18.05149 -30.93614 -37.02959 10.10587 7.94976 17.51225
0.0006 0.57871 -0.00122 197.29309 0 -13.79372 6.67488 12.1684 -3.92504 -22.85337 1.75481 -2.15874 -5.44827 -9.53441 -11.05843 113.76725 74.65778 -44.9223 -3.12516 -1.53413 9.1109 12.3938 117.84113 -71.60721 -52.10643 2.93632 -5.15415 13.92287 47.898 5.32849 -5.28614 -0.00072 -21.4284 19.97941 18.07053 -30.87007 -37.02559 10.10382 7.95855 17.50373
0.00047 0.57873 -0.00133 197.22709 0 -13.75966 6.79826 12.08574 -4.01132 -22.55126 1.59225 -2.32633 -5.29278 -8.67018 -10.59222 113.33293 74.851 -47.73502 -3.11565 -1.92553 9.72121 10.74825 117.2092 -72.72465 -50.89873 3.0117 -5.16406 13.92287 47.89829 5.32849 -5.28212 -0.00053 -21.42845 19.92867 18.08382 -30.80965 -36.98102 10.09138 7.96311 17.49352
0.00038 0.57874 -0.00144 197.16517 0 -13.73521 6.9239 12.00796 -4.06868 -22.28363 1.4211 -2.48668 -5.06415 -7.5439 -10.32785 113.0272 75.63352 -50.5676 -3.23072 -2.16553 10.08707 9.21336 116.91117 -73.63614 -50.25292 3.08035 -5.16952 13.92287 47.8985 5.3285 -5.27587 -0.00039 -21.42849 19.8947 18.10086 -30.74724 -36.95728 10.08554 7.96978 17.48501
0.00027 0.57876 -0.00157 197.10627 0 -13.70249 7.05748 11.92078 -4.11772 -22.03946 1.21351 -2.66016 -4.76595 -6.25033 -10.0369 112.70122 76.67535 -53.73868 -3.35744 -2.38382 10.57207 7.47601 116.6053 -75.0326 -49.35534 3.18765 -5.1771 13.92287 47.89875 5.3285 -5.27214 -0.00022 -21.42853 19.85544 18.11328 -30.68254 -36.92368 10.0721 7.97568 17.47275
0.00017 0.57875 -0.00166 197.03884 0 -13.68278 7.17225 11.85153 -4.19995 -21.72708 1.09074 -2.80828 -4.65865 -5.46087 -9.70224 112.35531 76.84559 -56.15704 -3.39387 -2.72796 10.92223 6.12877 116.1458 -75.48045 -48.71531 3.21436 -5.18234 13.92287 47.89896 5.3285 -5.26423 -8e-05 -21.42857 19.81907 18.13374 -30.62379 -36.90065 10.07161 7.98213 17.46769
0.00013 0.57869 -0.00166 196.94801 0 -13.70521 7.23839 11.83564 -4.35979 -21.2334 1.19305 -2.88571 -5.03769 -5.91785 -9.32363 111.99674 74.87835 -56.50796 -3.24477 -3.34531 10.78141 5.88132 115.40842 -73.1262 -49.09772 3.00827 -5.17901 13.92287 47.899 5.3285 -5.24172 -6e-05 -21.42857 19.79916 18.17974 -30.58163 -36.91946 10.11278 7.99159 17.48471
0.0001 0.5786 -0.00163 196.84951 0 -13.7409 7.28571 11.83758 -4.55003 -20.67718 1.37902 -2.93694 -5.60033 -6.85519 -8.92167 111.63212 72.0982 -56.1167 -3.01531 -4.0747 10.48955 6.03364 114.54833 -69.83389 -49.76932 2.72323 -5.17303 13.92287 47.89898 5.3285 -5.2153 -7e-05 -21.42857 19.7833 18.23364 -30.54511 -36.94974 10.16669 8.00163 17.5087
7e-05 0.57853 -0.00161 196.75605 0 -13.76911 7.34093 11.82972 -4.72484 -20.15882 1.52703 -2.99923 -6.07424 -7.56223 -8.54897 111.28643 69.74506 -56.09448 -2.82592 -4.74719 10.26746 6.00989 113.76543 -67.06229 -50.28195 2.48229 -5.1683 13.92287 47.899 5.3285 -5.19214 -6e-05 -21.42857 19.76552 18.28267 -30.50483 -36.9731 10.21257 8.01114 17.52833
3e-05 0.57844 -0.00158 196.65533 0 -13.80291 7.39854 11.82868 -4.90951 -19.59626 1.67756 -3.06571 -6.57843 -8.34618 -8.08117 110.86299 67.10171 -55.93266 -2.61208 -5.46032 10.05449 5.95631 112.86467 -63.90707 -50.87399 2.20737 -5.16372 13.92287 47.899 5.3285 -5.16286 -6e-05 -21.42857 19.74694 18.33699 -30.46925 -37.00256 10.26764 8.02174 17.55294
1e-05 0.57838 -0.00156 196.56846 0 -13.8284 7.44685 11.81793 -5.07915 -19.11367 1.84043 -3.11675 -7.05926 -9.07153 -7.81318 110.60348 64.88475 -55.88545 -2.43333 -6.10673 9.78389 6.06327 112.19213 -61.31536 -51.38165 1.9834 -5.15804 13.92287 47.89901 5.3285 -5.14534 -6e-05 -21.42857 19.73137 18.38213 -30.42583 -37.02217 10.3066 8.03012 17.56888
4e-05 0.57843 -0.00154 196.51825 0 -13.8281 7.47396 11.77437 -5.20666 -18.85418 2.03243 -3.13459 -7.44065 -9.54736 -8.09092 110.801 64.08383 -56.36234 -2.37609 -6.57531 9.3585 6.50345 112.16404 -60.59905 -51.60839 1.92975 -5.15028 13.92287 47.89901 5.3285 -5.16125 -5e-05 -21.42857 19.72381 18.40099 -30.35358 -37.01535 10.29905 8.03341 17.55881
0.0001 0.57852 -0.00152 196.48298 0 -13.81901 7.49239 11.72074 -5.3164 -18.68039 2.23112 -3.13716 -7.78907 -9.93887 -8.57507 111.16464 63.74039 -56.97723 -2.35748 -6.96474 8.88351 7.09515 112.37681 -60.46668 -51.74174 1.92846 -5.14141 13.92287 47.89901 5.3285 -5.18907 -3e-05 -21.42857 19.71922 18.41015 -30.27435 -36.99782 10.27471 8.03425 17.53986
0.00016 0.5786 -0.0015 196.44311 0 -13.81372 7.51495 11.67279 -5.42947 -18.47618 2.4161 -3.1447 -8.14539 -10.34594 -8.97441 111.45164 63.16806 -57.51194 -2.31927 -7.36656 8.45089 7.62523 112.49297 -60.00428 -51.90816 1.89617 -5.1328 13.92287 47.89901 5.3285 -5.21144 -2e-05 -21.42857 19.7129 18.42313 -30.20202 -36.98296 10.25739 8.03542 17.52522
0.00019 0.57867 -0.00148 196.39352 0 -13.8096 7.53622 11.62081 -5.56365 -18.23307 2.64813 -3.15976 -8.53924 -10.86579 -9.33407 111.74279 62.65299 -58.09107 -2.28645 -7.87236 7.93174 8.13542 112.5489 -59.7732 -52.12262 1.89055 -5.12513 13.92287 47.89901 5.3285 -5.23395 -0 -21.42857 19.7081 18.43893 -30.11393 -36.97745 10.24303 8.03985 17.50965
0.00027 0.57875 -0.00147 196.36809 0 -13.80089 7.55817 11.57459 -5.64926 -18.09297 2.78384 -3.15575 -8.84331 -11.12498 -9.82653 112.06523 62.14065 -58.62427 -2.25298 -8.14093 7.58022 8.72184 112.79072 -59.22253 -52.21233 1.84407 -5.11527 13.92287 47.89901 5.3285 -5.25891 0 -21.42857 19.70107 18.44639 -30.05721 -36.95015 10.21843 8.03698 17.49385
0.00044 0.57884 -0.00153 196.40337 0 -13.78081 7.58574 11.54694 -5.60463 -18.20997 2.64119 -3.10388 -8.9178 -10.67602 -10.62981 112.43068 61.50826 -58.96576 -2.20644 -7.77603 7.72692 9.44592 113.4749 -57.55216 -51.97165 1.66162 -5.09982 13.92287 47.89901 5.3285 -5.28897 -0 -21.42857 19.68482 18.43362 -30.08651 -36.86207 10.16901 8.01403 17.47903
